<?xml version="1.0" encoding="utf-8"?>
<!-- Generator: Adobe Illustrator 24.0.0, SVG Export Plug-In . SVG Version: 6.00 Build 0)  -->
<svg version="1.1" id="Layer_1" xmlns="http://www.w3.org/2000/svg" xmlns:xlink="http://www.w3.org/1999/xlink" x="0px" y="0px"
	 viewBox="0 0 1080 1080" style="enable-background:new 0 0 1080 1080;" xml:space="preserve">
<style type="text/css">
	.st0{fill:#E51F1F;}
</style>
<g>
	<path d="M486.2,539.5c37.9,36.3,75.3,72.1,113,108.4c4.6-2.7,8.7-5.4,12.2-7.6c27.4,27.4,54.5,54.5,84,84c-12.2,2.7-23.6,7-35,7
		c-79.9,0.5-159.6,0.5-239.5,0.3c-40.9-0.3-72.6-32.2-72.6-73.4c-0.3-79.4-0.3-158.8,0.3-238.2c0-11.4,4.1-22.8,6.5-35.2
		c11.4,5.7,16,11.7,11.4,22.2c-1.4,3.3-1.9,7-1.9,10.6c0,72.1,0,144.4,0,219.8C406,603.7,445.9,572,486.2,539.5z"/>
	<path d="M647.5,615.4c20.1-13.8,40.6-27.4,60.7-42c4.1-3,7.9-9.8,7.9-14.9c0.5-45.5,0.5-91.3,0.3-136.8
		c-0.3-33.9-24.4-58-58.3-58.3c-78.6-0.3-157.2,0-235.7,0c-4.9,0-10.3,0-14.6,1.9c-10,4.3-16.3,0.8-22.5-10.6
		c11.7-2.7,22.8-7,33.6-7c80.7-0.5,161.5-0.8,242.5,0c39,0.3,70.7,32,71,71c0.5,80.7,0.5,161.5,0,242.5c0,10.8-4.3,21.7-6.5,32
		C699.2,666.6,673.7,641.1,647.5,615.4z"/>
	<path class="st0" d="M753.1,741.4c-3.3,3.3-7.9,8.1-11.7,11.9C603,614.8,465.1,476.9,326.4,338.2c4.1-3.3,8.9-7.6,12.7-10.8
		C476.8,464.7,614.4,602.4,753.1,741.4z"/>
	<path d="M649.1,508.6c-0.3,21.9-17.3,39.3-39.3,39.3c-22.8,0-40.1-17.3-40.1-40.1c0.3-22.8,17.9-39.6,40.6-39.3
		C632.6,469,649.4,486.4,649.1,508.6z"/>
</g>
</svg>
