<?xml version="1.0" encoding="utf-8"?>
<!-- Generator: Adobe Illustrator 24.0.0, SVG Export Plug-In . SVG Version: 6.00 Build 0)  -->
<svg version="1.1" id="Layer_1" xmlns="http://www.w3.org/2000/svg" xmlns:xlink="http://www.w3.org/1999/xlink" x="0px" y="0px"
	 viewBox="0 0 780 438" style="enable-background:new 0 0 780 438;" xml:space="preserve">
<style type="text/css">
	.st0{fill:#FFC105;}
	.st1{fill:#F6083C;}
	.st2{fill:#CCC089;}
</style>
<g>
	<path class="st0" d="M354,218.4c25.5,24.4,50.6,48.5,76,72.9c3.1-1.8,5.9-3.6,8.2-5.1c18.4,18.4,36.7,36.7,56.5,56.5
		c-8.2,1.8-15.9,4.7-23.5,4.7c-53.7,0.3-107.4,0.3-161.1,0.2c-27.5-0.2-48.8-21.7-48.8-49.4c-0.2-53.4-0.2-106.8,0.2-160.2
		c0-7.7,2.8-15.3,4.4-23.7c7.7,3.8,10.8,7.9,7.7,14.9c-0.9,2.2-1.3,4.7-1.3,7.1c0,48.5,0,97.1,0,147.8
		C300,261.6,326.9,240.3,354,218.4z"/>
	<path class="st0" d="M462.5,269.5c13.5-9.3,27.3-18.4,40.8-28.3c2.8-2,5.3-6.6,5.3-10c0.3-30.6,0.3-61.4,0.2-92
		c-0.2-22.8-16.4-39-39.2-39.2c-52.9-0.2-105.7,0-158.5,0c-3.3,0-6.9,0-9.8,1.3c-6.7,2.9-11,0.5-15.1-7.1c7.9-1.8,15.3-4.7,22.6-4.7
		c54.3-0.3,108.6-0.5,163.1,0c26.2,0.2,47.6,21.5,47.8,47.8c0.3,54.3,0.3,108.6,0,163.1c0,7.3-2.9,14.6-4.4,21.5
		C497.3,303.9,480.1,286.8,462.5,269.5z"/>
	<path class="st1" d="M533.5,354.2c-2.2,2.2-5.3,5.4-7.9,8C432.5,269.1,339.8,176.3,246.5,83c2.8-2.2,6-5.1,8.5-7.3
		C347.7,168.1,440.2,260.7,533.5,354.2z"/>
	<path class="st2" d="M463.6,197.6c-0.2,14.7-11.6,26.4-26.4,26.4c-15.3,0-27-11.6-27-27c0.2-15.3,12-26.6,27.3-26.4
		C452.5,171,463.8,182.7,463.6,197.6z"/>
</g>
</svg>
